<svg xmlns="http://www.w3.org/2000/svg" width="1em" height="1em" viewBox="0 0 24 24"><path fill="currentColor" fill-rule="evenodd" d="M14.856 15.686a11.66 11.66 0 0 0-.1.25a8.696 8.696 0 0 1-5.512 0a11.298 11.298 0 0 0-.1-.25c-.095-.23-.143-.346-.226-.452c-.082-.107-.226-.215-.514-.43a6 6 0 1 1 7.192 0c-.288.215-.432.323-.514.43c-.083.106-.13.221-.226.452m-5.006 2.48c.087.527.136 1.061.148 1.598a.39.39 0 0 0 .213.342a4 4 0 0 0 3.578 0a.39.39 0 0 0 .213-.342c.012-.537.061-1.07.148-1.598a10.699 10.699 0 0 1-4.3 0" clip-rule="evenodd"/></svg>